# xmcd
#
# Track frame offsets:
# 150
# 14606
# 27456
# 44243
# 59155
# 73388
# 89159
# 102975
# 117351
# 132939
# 144780
# 158318
# 168942
# 186992
# 202195
# 216912
# 233993
# 251280
# 267170
# 284472
#
# Disc length: 4014 seconds
#
#
# Revision: 0
# Processed by: cddbd v1.5.1PL2 Copyright (c) Steve Scherf et al.
# Submitted via: FreeRIP 2.945 
#
DISCID=3d0fac14
DTITLE=Clássicos Sertanejo - Especial vol. 2 - Clássicos Sertanejo
DYEAR=1900
DGENRE=Country
TTITLE0=Saudade de minha terra  - Belmonte and Amaraí
TTITLE1=Pé de cedro - Tibagi and Miltinho
TTITLE2=Boiadeiro errante - Liu and Léu
TTITLE3=Caboclo da cidade - Dino Franco and Moraí
TTITLE4=Goiano valente - Nenete and Dorinho
TTITLE5=O ipê e o prisioneiro - Mococa and Paraíso
TTITLE6=Encanto da natureza - Tião Carreiro and Pardinho
TTITLE7=O carro e a faculdade - Valdery and Mizael
TTITLE8=O menino da porteira - Luizinho Limeira and Zezinha
TTITLE9=Baldrana macia - Biá and Dino Franco
TTITLE10=Recordação - Nenete and Dorinho
TTITLE11=João Boiadeiro - Tonico and Tinoco
TTITLE12=A sementinha - Biá and Dino Franco
TTITLE13=Poeira - Duo Glacial
TTITLE14=Canoeiro - Zé Carreiro and Carreirinho
TTITLE15=Couro de Boi - Palmeira and Biá
TTITLE16=Filho adotivo - Sérgio Reis
TTITLE17=Filho pródigo - Junior and Julio
TTITLE18=O último julgamento - Léo Canhoto and Robertinho
TTITLE19=Chitãozinho and Xororó - Pedro Bento and Zé da Estrada
EXTD=
EXTT0=
EXTT1=
EXTT2=
EXTT3=
EXTT4=
EXTT5=
EXTT6=
EXTT7=
EXTT8=
EXTT9=
EXTT10=
EXTT11=
EXTT12=
EXTT13=
EXTT14=
EXTT15=
EXTT16=
EXTT17=
EXTT18=
EXTT19=
PLAYORDER=
